<svg width="180" height="180" viewBox="0 0 180 180" fill="none" xmlns="http://www.w3.org/2000/svg">
<path d="M24.4606 63.9406C25.328 59.1425 25.7388 55.6564 27.1446 50.8634C31.4969 36.4388 40.6118 23.9234 52.9952 15.3692C67.4618 5.34064 85.3252 1.51074 102.621 4.72877C119.817 7.9539 135.027 17.8918 144.905 32.3554C153.115 44.3312 158.743 63.2011 155.63 77.2208C148.424 109.674 113.085 150.367 90.277 173.782C89.6299 174.55 89.6492 174.543 88.8121 175.082C88.0071 174.85 67.4535 151.357 66.3585 149.436C66.068 148.643 66.1067 148.633 65.4859 148.001C64.5313 148.054 64.5696 148.055 63.6504 147.784C63.9872 147.46 64.9067 147.379 65.4743 147.26L65.0922 146.764C62.8683 146.573 60.6397 146.438 58.4088 146.36C55.1373 146.492 52.2222 146.917 49.519 147.046C45.3614 146.878 37.0798 145.349 33.1119 144.311C21.7928 140.963 12.487 138.045 10.25 125.107C10.8524 123.715 11.2211 122.329 11.5823 120.859C14.8693 110.325 22.3054 105.023 31.1389 99.2755C29.21 96.3574 25.7801 87.3607 24.8396 83.9485C21.9718 75.8635 22.8762 71.8933 24.4606 63.9406Z" fill="#6FC7D4"/>
<path d="M24.7499 64.4089C24.7753 69.6329 24.6842 74.1672 25.9813 79.2986C25.9421 79.367 25.9051 79.4336 25.869 79.4978C26.4349 81.9191 26.7996 83.9008 27.5858 86.1882C28.2886 88.2324 32.3982 97.283 32.4188 98.3005C31.7782 99.0251 31.361 99.9773 31.3593 99.9773C29.2136 97.4733 25.8749 87.702 24.9208 84.2429H24.9198C21.7752 76.1509 23.0125 72.3686 24.7499 64.4089Z" fill="#BAE7EC"/>
<path d="M85.6197 19.2087C96.436 17.3126 110.208 21.4695 119.18 27.5369C130.443 35.1007 138.173 46.7219 140.668 59.8468C141.27 63.0742 141.736 68.7362 140.974 72.0317C139.56 93.5108 105.033 133.259 90.321 149.867C80.7606 138.742 68.9241 125.472 60.1356 113.922L47.227 122.878C48.81 125.007 50.4587 127.089 52.1709 129.121C50.5807 128.959 48.9083 128.821 47.3417 128.56C39.835 127.528 31.7718 125.961 25.3793 121.87C33.2519 111.485 57.5778 101.363 69.6135 96.0223C70.9663 95.4181 70.6136 95.3167 71.6666 95.6657C73.3837 97.4346 73.2983 99.2244 75.2636 101.039C76.9304 100.346 77.4039 99.6723 77.4663 97.8632C77.5781 94.5722 77.4137 91.2195 77.4696 87.9131C82.3057 86.9638 89.3643 83.9158 93.8684 81.9025L94.9072 81.4123C97.2349 82.4679 100.421 93.7336 104.208 96.6904C106.506 95.1006 106.815 92.9753 107.256 90.3957C108.156 85.1483 108.978 79.8607 109.846 74.6097C113.229 72.4937 124.749 65.6436 123.427 61.3865C120.505 58.2326 107.667 62.5654 103.787 64.0332C100.67 62.2302 86.938 54.0763 84.5479 54.3797C83.5747 54.8905 83.4827 55.3547 82.9567 56.3833L83.1375 56.8136C84.2389 59.4124 90.3571 70.1497 90.1303 71.5485C89.4629 72.0946 89.407 72.1694 88.6016 72.5739C83.0488 75.5327 79.3271 77.6776 74.1754 81.2203C71.6465 79.2767 66.7881 74.9349 64.0169 74.4026C62.696 74.7313 63.1059 74.6334 62.0322 75.8235C62.6322 77.1671 64.015 79.6899 64.2346 80.8771C63.8591 81.5885 64.133 81.3323 63.3795 81.6643C57.1964 84.6763 51.4473 86.7606 45.1541 90.1794C42.1726 84.057 38.9977 77.058 38.6137 70.2557C37.9236 58.0313 42.9807 44.9272 51.326 35.8375C60.1145 26.2652 72.4343 20.0033 85.6197 19.2087Z" fill="#BAE7EC"/>
<path d="M90.9396 19.1839C100.724 17.3894 113.182 21.3236 121.297 27.0659C131.486 34.2245 138.478 45.223 140.735 57.6448C141.279 60.6994 141.701 66.0579 141.011 69.1769C141.041 68.7464 141.056 68.3149 141.059 67.8831C141.08 64.9106 139.956 64.0207 139.602 61.606C136.83 42.7577 124.149 27.0146 105.934 22.116C101.214 20.8471 95.8257 19.1371 90.9396 19.1839Z" fill="#BAE7EC"/>
<path d="M46.6545 117.991L47.3689 117.634C47.0754 116.223 45.3642 116.375 45.5686 114.65C46.0826 114.221 46.3645 114.065 46.5609 113.401C47.8525 115.121 49.1978 116.803 50.5948 118.444C49.2973 118.313 47.9327 118.201 46.6545 117.991Z" fill="#BAE7EC"/>
<path d="M11.5986 121.625C12.2612 136.953 24.3783 140.752 37.3711 144.052C44.1894 145.355 50.2518 145.854 56.4336 146.808C57.1542 146.746 57.8921 146.693 58.6484 146.658C60.9107 146.748 65.6399 147.177 65.6895 147.181L66.0938 147.451C66.9349 147.691 68.341 148.326 69.4414 149.574C74.8599 155.721 80.0268 162.175 85.377 168.384C86.4975 169.681 87.8861 173.638 89 174.375C88.192 174.142 68.5368 152.838 66.7402 150.203C66.7436 150.213 66.7476 150.224 66.751 150.234C63.2717 148.376 56.3864 148.599 51.3438 147.8C50.8336 147.838 50.3313 147.874 49.8359 147.897C45.6043 147.729 34.2212 146.137 33.1367 145.168C33.1262 145.158 33.1164 145.148 33.1064 145.139C21.7779 141.805 12.4958 138.809 10.25 125.9C10.8598 124.499 11.2329 123.104 11.5986 121.625ZM63.9912 148.314C63.9954 148.316 63.9997 148.317 64.0039 148.318C64.0069 148.316 64.0097 148.314 64.0127 148.312C64.0055 148.313 63.9984 148.314 63.9912 148.314Z" fill="#BAE7EC"/>
</svg>
