<svg width="118" height="35" viewBox="0 0 118 35" fill="none" xmlns="http://www.w3.org/2000/svg">
<path d="M2.81784 11.9617C2.98983 11.0103 3.07129 10.319 3.35003 9.36862C4.21306 6.50837 6.02045 4.02668 8.47598 2.33046C11.3446 0.34189 14.8867 -0.417544 18.3163 0.220562C21.7262 0.860075 24.7421 2.83067 26.7008 5.69866C28.3288 8.07335 29.4448 11.8151 28.8274 14.5951C27.3986 21.0303 20.3912 29.0992 15.8686 33.7423C15.7403 33.8945 15.7441 33.8932 15.5781 34C15.4185 33.954 11.3429 29.2955 11.1258 28.9147C11.0682 28.7573 11.0759 28.7553 10.9528 28.6301C10.7635 28.6407 10.7711 28.6409 10.5888 28.5871C10.6556 28.5228 10.8379 28.5068 10.9505 28.4831L10.8747 28.3849C10.4337 28.3468 9.9918 28.3201 9.54944 28.3046C8.90073 28.3308 8.32269 28.4152 7.78667 28.4407C6.96226 28.4074 5.3201 28.1043 4.5333 27.8983C2.28883 27.2345 0.443581 26.6559 0 24.0905C0.11945 23.8145 0.19255 23.5395 0.264182 23.248C0.915955 21.1593 2.39047 20.108 4.14207 18.9683C3.75958 18.3897 3.07947 16.6057 2.89298 15.9291C2.32433 14.3259 2.50367 13.5387 2.81784 11.9617Z" fill="black"/>
<path d="M2.87554 12.0547C2.88058 13.0905 2.86252 13.9894 3.11968 15.0068C3.11146 15.0212 3.10377 15.0354 3.09624 15.0488C3.20816 15.528 3.28144 15.9202 3.43706 16.373C3.57639 16.7784 4.39209 18.5739 4.39605 18.7754C4.27104 18.9169 4.18889 19.1018 4.18608 19.1074C3.76063 18.6111 3.09795 16.6733 2.90874 15.9873C2.28529 14.3829 2.53104 13.633 2.87554 12.0547Z" fill="white"/>
<path d="M14.9451 3.09177C17.0899 2.7158 19.8207 3.54006 21.5998 4.74318C23.8332 6.24301 25.3658 8.54737 25.8606 11.1499C25.9799 11.7899 26.0725 12.9126 25.9213 13.5661C25.6409 17.8252 18.7946 25.7069 15.8773 29C13.9816 26.7942 11.6345 24.1628 9.89184 21.8725L7.33218 23.6485C7.64608 24.0707 7.97301 24.4835 8.31252 24.8864C7.9972 24.8543 7.66557 24.8268 7.35494 24.7751C5.86644 24.5705 4.26757 24.2598 3 23.4485C4.56106 21.3894 9.38465 19.3821 11.7712 18.3232C12.0395 18.2034 11.9695 18.1833 12.1783 18.2525C12.5188 18.6032 12.5019 18.9581 12.8916 19.318C13.2221 19.1806 13.316 19.0469 13.3284 18.6882C13.3505 18.0356 13.3179 17.3708 13.329 16.7152C14.288 16.527 15.6876 15.9226 16.5807 15.5234L16.7867 15.4262C17.2483 15.6355 17.88 17.8694 18.631 18.4557C19.0867 18.1404 19.1479 17.719 19.2353 17.2075C19.4139 16.167 19.5769 15.1185 19.749 14.0773C20.4198 13.6577 22.7041 12.2994 22.442 11.4552C21.8625 10.8298 19.3168 11.689 18.5475 11.98C17.9295 11.6225 15.2065 10.0057 14.7326 10.0659C14.5396 10.1671 14.5214 10.2592 14.417 10.4632L14.4529 10.5485C14.6713 11.0638 15.8845 13.1929 15.8395 13.4703C15.7072 13.5785 15.6961 13.5934 15.5364 13.6736C14.4353 14.2603 13.6973 14.6856 12.6758 15.3881C12.1744 15.0027 11.211 14.1418 10.6615 14.0362C10.3995 14.1014 10.4808 14.082 10.2679 14.318C10.3869 14.5844 10.6611 15.0846 10.7046 15.32C10.6302 15.4611 10.6845 15.4103 10.5351 15.4761C9.30903 16.0734 8.16904 16.4867 6.92116 17.1646C6.32994 15.9506 5.7004 14.5627 5.62425 13.2139C5.48742 10.7899 6.49018 8.19151 8.14498 6.3891C9.88766 4.49102 12.3306 3.24933 14.9451 3.09177Z" fill="white"/>
<path d="M16 3.08686C17.9401 2.73102 20.4104 3.51113 22.0197 4.64979C24.04 6.06926 25.4263 8.25017 25.8739 10.7133C25.9818 11.319 26.0656 12.3815 25.9288 13C25.9347 12.9146 25.9376 12.8291 25.9382 12.7435C25.9423 12.154 25.7194 11.9776 25.6493 11.4988C25.0997 7.76131 22.5852 4.6396 18.9733 3.66826C18.0374 3.41666 16.9689 3.07758 16 3.08686Z" fill="white"/>
<path d="M7.21867 24.9101L7.36032 24.8394C7.30213 24.5596 6.96282 24.5898 7.00335 24.2477C7.10527 24.1627 7.16117 24.1317 7.20011 24C7.45622 24.3411 7.72298 24.6746 8 25C7.74271 24.9741 7.47213 24.9519 7.21867 24.9101Z" fill="white"/>
<path d="M0.267578 23.4004C0.398761 26.4331 2.79132 27.1895 5.36133 27.8428C6.7203 28.1037 7.92722 28.2034 9.1582 28.3936C9.30089 28.3813 9.44694 28.3711 9.59668 28.3643C10.0465 28.3822 10.9886 28.4674 10.9932 28.4678C11.0236 28.4881 11.049 28.5053 11.0732 28.5215C11.2401 28.569 11.5191 28.6949 11.7373 28.9424C12.8116 30.1612 13.8357 31.4408 14.8965 32.6719C15.1186 32.929 15.8043 33.7717 16.0254 33.918C15.8945 34.0717 15.8987 34.0709 15.7295 34.1787C15.5693 34.133 11.5471 29.5831 11.2002 29.0635C11.2012 29.0666 11.2031 29.07 11.2041 29.0732C10.5137 28.7044 9.14663 28.7479 8.14648 28.5889C8.046 28.5965 7.94719 28.6048 7.84961 28.6094C7.01053 28.5761 4.75311 28.2606 4.53809 28.0684C4.53598 28.0665 4.53422 28.0643 4.53223 28.0625C2.28594 27.4014 0.445306 26.8078 0 24.248C0.120915 23.9703 0.195066 23.6937 0.267578 23.4004ZM10.6562 28.6924H10.6582C10.659 28.6918 10.6603 28.6919 10.6611 28.6914C10.6595 28.6915 10.6579 28.6923 10.6562 28.6924Z" fill="white"/>
<path d="M41.8984 7.99561V18.894C41.8984 20.4487 42.1523 21.5854 42.6602 22.3042C43.418 23.3433 44.4844 23.8628 45.8594 23.8628C47.2422 23.8628 48.3125 23.3433 49.0703 22.3042C49.5781 21.6089 49.832 20.4722 49.832 18.894V7.99561H52.5625V19.644C52.5625 21.5503 51.9688 23.1206 50.7812 24.355C49.4453 25.73 47.8047 26.4175 45.8594 26.4175C43.9141 26.4175 42.2773 25.73 40.9492 24.355C39.7617 23.1206 39.168 21.5503 39.168 19.644V7.99561H41.8984ZM56.3303 14.6753H58.9788V15.73C59.9006 14.8159 60.9397 14.3589 62.0959 14.3589C63.4241 14.3589 64.4592 14.7769 65.2014 15.6128C65.842 16.3237 66.1623 17.4839 66.1623 19.0933V26.0894H63.5139V19.7144C63.5139 18.5894 63.3577 17.812 63.0452 17.3823C62.7405 16.9448 62.1858 16.7261 61.3811 16.7261C60.5061 16.7261 59.885 17.0151 59.5178 17.5933C59.1584 18.1636 58.9788 19.1597 58.9788 20.5815V26.0894H56.3303V14.6753ZM71.9809 17.1362V26.0894H69.3442V17.1362H68.2192V14.6753H69.3442V10.4917H71.9809V14.6753H74.0317V17.1362H71.9809ZM75.5847 14.6753H78.2214V15.6948C78.7058 15.187 79.1355 14.8394 79.5105 14.6519C79.8933 14.4565 80.3464 14.3589 80.8698 14.3589C81.5652 14.3589 82.2917 14.5854 83.0495 15.0386L81.8425 17.4526C81.3425 17.0933 80.8542 16.9136 80.3777 16.9136C78.9402 16.9136 78.2214 17.9995 78.2214 20.1714V26.0894H75.5847V14.6753ZM87.333 14.6753V26.0894H84.6963V14.6753H87.333ZM84.2978 9.9292C84.2978 9.46826 84.4658 9.06982 84.8017 8.73389C85.1377 8.39795 85.54 8.22998 86.0088 8.22998C86.4853 8.22998 86.8916 8.39795 87.2275 8.73389C87.5634 9.06201 87.7314 9.46436 87.7314 9.94092C87.7314 10.4175 87.5634 10.8237 87.2275 11.1597C86.8994 11.4956 86.497 11.6636 86.0205 11.6636C85.5439 11.6636 85.1377 11.4956 84.8017 11.1597C84.4658 10.8237 84.2978 10.4136 84.2978 9.9292ZM93.0695 32.3003H90.4328V14.6753H93.0695V15.9175C94.1086 14.8784 95.2883 14.3589 96.6086 14.3589C98.1789 14.3589 99.4719 14.937 100.487 16.0933C101.519 17.2417 102.034 18.6909 102.034 20.4409C102.034 22.1519 101.523 23.5776 100.499 24.7183C99.4836 25.8511 98.2023 26.4175 96.6555 26.4175C95.3195 26.4175 94.1242 25.8823 93.0695 24.812V32.3003ZM99.3391 20.4526C99.3391 19.3589 99.0422 18.4683 98.4484 17.7808C97.8469 17.0854 97.0891 16.7378 96.175 16.7378C95.2062 16.7378 94.4211 17.0737 93.8195 17.7456C93.218 18.4175 92.9172 19.3003 92.9172 20.394C92.9172 21.4644 93.218 22.3472 93.8195 23.0425C94.4133 23.7222 95.1945 24.062 96.1633 24.062C97.0773 24.062 97.8312 23.7183 98.425 23.0308C99.0344 22.3433 99.3391 21.4839 99.3391 20.4526ZM107.22 32.3003H104.583V14.6753H107.22V15.9175C108.259 14.8784 109.439 14.3589 110.759 14.3589C112.33 14.3589 113.622 14.937 114.638 16.0933C115.669 17.2417 116.185 18.6909 116.185 20.4409C116.185 22.1519 115.673 23.5776 114.65 24.7183C113.634 25.8511 112.353 26.4175 110.806 26.4175C109.47 26.4175 108.275 25.8823 107.22 24.812V32.3003ZM113.49 20.4526C113.49 19.3589 113.193 18.4683 112.599 17.7808C111.997 17.0854 111.24 16.7378 110.326 16.7378C109.357 16.7378 108.572 17.0737 107.97 17.7456C107.369 18.4175 107.068 19.3003 107.068 20.394C107.068 21.4644 107.369 22.3472 107.97 23.0425C108.564 23.7222 109.345 24.062 110.314 24.062C111.228 24.062 111.982 23.7183 112.576 23.0308C113.185 22.3433 113.49 21.4839 113.49 20.4526Z" fill="black"/>
</svg>
