<svg width="64" height="64" viewBox="0 0 64 64" fill="none" xmlns="http://www.w3.org/2000/svg">
<path d="M10.8453 23.5681C11.141 21.9321 11.2811 20.7435 11.7604 19.1093C13.2443 14.1911 16.3521 9.92386 20.5744 7.00721C25.5069 3.58788 31.5976 2.28204 37.4948 3.37925C43.358 4.47889 48.5439 7.86732 51.9119 12.7988C54.7112 16.8821 56.6301 23.3159 55.5686 28.0961C53.1118 39.1614 41.0626 53.036 33.286 61.0196C33.0653 61.2813 33.0719 61.2791 32.7865 61.4628C32.512 61.3836 25.5041 53.3734 25.1307 52.7187C25.0317 52.448 25.0449 52.4446 24.8332 52.2292C24.5077 52.2474 24.5208 52.2478 24.2074 52.1553C24.3222 52.0448 24.6357 52.0173 24.8292 51.9765L24.6989 51.8076C23.9407 51.7422 23.1808 51.6962 22.4202 51.6696C21.3047 51.7146 20.3108 51.8598 19.3891 51.9037C17.9716 51.8462 15.1479 51.3252 13.795 50.971C9.93563 49.8295 6.76273 48.8346 6 44.4235C6.20539 43.9488 6.33109 43.4761 6.45426 42.9748C7.57498 39.3832 10.1104 37.5756 13.1223 35.6158C12.4646 34.6209 11.2951 31.5534 10.9745 30.3899C9.99667 27.6333 10.305 26.2796 10.8453 23.5681Z" fill="#6FC7D4"/>
<path d="M10.9437 23.7279C10.9524 25.5091 10.9214 27.0554 11.3637 28.8051C11.3493 28.8301 11.3368 28.8549 11.3236 28.8783C11.5159 29.7015 11.643 30.3754 11.9105 31.1537C12.1502 31.8507 13.5522 34.9371 13.559 35.2836C13.3446 35.526 13.2034 35.8431 13.1977 35.8549C12.5576 35.1079 11.6055 32.4643 11.1596 31.0248L11.0023 30.4906L10.8178 29.9896C9.98284 27.5647 10.3884 26.2722 10.9437 23.7279Z" fill="#BAE7EC"/>
<path d="M31.698 8.31631C35.3859 7.66982 40.0816 9.08714 43.1407 11.1559C46.981 13.7348 49.6164 17.6972 50.4672 22.1722C50.6723 23.2727 50.8315 25.2032 50.5714 26.3268C50.0894 33.6503 38.3172 47.2029 33.301 52.8653C30.0412 49.0724 26.0055 44.5478 23.0089 40.6096L18.6076 43.6634C19.1474 44.3894 19.7095 45.0993 20.2933 45.7919C19.7511 45.7368 19.1809 45.6896 18.6468 45.6006C16.0873 45.2488 13.3381 44.7146 11.1585 43.3196C13.8427 39.7789 22.1368 36.3274 26.2405 34.5066C26.7018 34.3006 26.5815 34.266 26.9406 34.385C27.526 34.9882 27.4969 35.5984 28.167 36.2172C28.7353 35.9809 28.8967 35.7511 28.918 35.1343C28.9561 34.0122 28.9001 32.8691 28.9192 31.7417C30.5681 31.418 32.9748 30.3788 34.5105 29.6923L34.8647 29.5252C35.6583 29.8851 36.7445 33.7263 38.0358 34.7344C38.8194 34.1924 38.9248 33.4677 39.075 32.5882C39.3821 30.799 39.6623 28.9962 39.9583 27.2058C41.1117 26.4843 45.0395 24.1487 44.5889 22.6972C43.5924 21.6219 39.2151 23.0992 37.8924 23.5996C36.8297 22.9849 32.1475 20.2048 31.3326 20.3082C31.0008 20.4824 30.9694 20.6406 30.79 20.9914L30.8517 21.138C31.2272 22.0241 33.3133 25.6851 33.2359 26.1621C33.0084 26.3482 32.9893 26.3738 32.7147 26.5117C30.8214 27.5205 29.5525 28.2518 27.796 29.4597C26.9337 28.7971 25.2772 27.3167 24.3323 27.1352C23.8819 27.2473 24.0217 27.2139 23.6556 27.6197C23.8602 28.0778 24.3317 28.9379 24.4065 29.3427C24.2785 29.5853 24.3719 29.4979 24.115 29.6111C22.0068 30.6381 20.0466 31.3487 17.9009 32.5144C16.8843 30.427 15.8018 28.0405 15.6709 25.7212C15.4356 21.5532 17.1598 17.0853 20.0052 13.986C23.0018 10.7223 27.2023 8.58723 31.698 8.31631Z" fill="#BAE7EC"/>
<path d="M33.5119 8.30785C36.8479 7.696 41.0955 9.03739 43.8626 10.9953C47.3365 13.4361 49.7204 17.1861 50.49 21.4215C50.6756 22.4629 50.8196 24.29 50.5843 25.3534C50.5945 25.2066 50.5995 25.0595 50.6005 24.9123C50.6076 23.8988 50.2244 23.5954 50.1037 22.7721C49.1587 16.3455 44.835 10.9778 38.6244 9.30758C37.0152 8.87495 35.1778 8.2919 33.5119 8.30785Z" fill="#BAE7EC"/>
<path d="M18.4125 41.9969L18.656 41.8754C18.556 41.3942 17.9725 41.4462 18.0422 40.858C18.2175 40.7118 18.3136 40.6584 18.3805 40.432C18.8209 41.0185 19.2796 41.5919 19.7559 42.1515C19.3135 42.1069 18.8483 42.0688 18.4125 41.9969Z" fill="#BAE7EC"/>
<path d="M6.45996 43.2356C6.68575 48.4603 10.8147 49.7564 15.2432 50.8811C17.5687 51.3261 19.636 51.497 21.7441 51.8225C21.9907 51.8013 22.2432 51.7836 22.502 51.7717C23.2702 51.8024 24.8728 51.9468 24.9023 51.9495C24.9552 51.9847 25 52.0142 25.042 52.0422C25.329 52.1243 25.8071 52.341 26.1816 52.7659C28.0291 54.8619 29.7911 57.062 31.6152 59.179C31.9973 59.6213 32.4708 60.9709 32.8506 61.2219C32.5752 61.1433 25.8488 53.8494 25.2588 52.9739C25.2605 52.9794 25.2628 52.9848 25.2646 52.9905C24.0775 52.3564 21.7275 52.4318 20.0078 52.1584C19.835 52.1716 19.6649 52.1858 19.4971 52.1936C18.0542 52.1363 14.1736 51.5935 13.8037 51.2629C13.8002 51.2598 13.7973 51.2562 13.7939 51.2532C9.93108 50.1164 6.76576 49.0954 6 44.6936C6.2079 44.216 6.33527 43.74 6.45996 43.2356ZM24.3232 52.3362C24.3248 52.3367 24.3266 52.3367 24.3281 52.3372C24.3293 52.3364 24.3308 52.336 24.332 52.3352C24.3292 52.3354 24.3261 52.336 24.3232 52.3362Z" fill="#BAE7EC"/>
</svg>
